<svg width="180" height="176" viewBox="0 0 180 176" fill="none" xmlns="http://www.w3.org/2000/svg">
<g clip-path="url(#clip0_83_25)">
<path d="M-1 -52.7979C-1 -67.5993 7.71727 -75 25.1518 -75C42.8188 -75 51.6523 -67.2469 51.6523 -51.7407V-2.40276H39.4481V-51.3883C39.4481 -58.2016 38.5183 -63.1354 36.6586 -66.1897C34.7989 -69.4789 31.0796 -71.1235 25.5005 -71.1235C19.9214 -71.1235 16.0859 -69.4789 13.9937 -66.1897C12.134 -63.1354 11.2042 -58.2016 11.2042 -51.3883V-9.09865C11.2042 -0.170833 12.3665 6.40756 14.6911 10.6365C17.9455 16.98 21.8974 22.7361 26.5466 27.9048C31.4282 33.0735 35.1476 37.42 37.7047 40.9441C40.2617 44.2333 42.5863 48.1099 44.6785 52.5738C49.3277 62.4414 51.6523 74.071 51.6523 87.4627V153.364C51.6523 168.165 42.8188 175.566 25.1518 175.566C7.71727 175.566 -1 167.813 -1 152.307V103.321H11.2042V151.954C11.2042 158.768 12.134 163.819 13.9937 167.108C15.8534 170.162 19.5728 171.69 25.1518 171.69C30.7309 171.69 34.4502 170.162 36.3099 167.108C38.4021 163.819 39.4481 158.768 39.4481 151.954V90.282C39.4481 76.8903 38.2858 67.4926 35.9612 62.0889C32.7068 54.1009 28.6387 47.405 23.757 42.0014C19.1078 36.5977 15.5047 32.3687 12.9476 29.3144C10.3906 26.2602 8.06596 22.971 5.97382 19.4469C1.32461 11.2239 -1 2.29608 -1 -7.33656V-52.7979Z" fill="#E2E2E2"/>
<rect x="69.6523" y="-75" width="11.0315" height="250.966" fill="#E2E2E2"/>
<rect x="98.6838" y="-75" width="11.0315" height="250.966" fill="#E2E2E2"/>
<path d="M180.368 153.717C180.368 168.283 171.534 175.566 153.867 175.566C136.433 175.566 127.715 168.048 127.715 153.012V-53.1504C127.715 -67.7168 136.433 -75 153.867 -75C171.534 -75 180.368 -67.4818 180.368 -52.4455V153.717ZM168.163 -51.0359C168.163 -58.0841 167.35 -62.9005 165.723 -65.4848C164.095 -68.3041 160.492 -69.7138 154.913 -69.7138C149.334 -69.7138 145.382 -68.4216 143.058 -65.8372C140.966 -63.4878 139.92 -58.9064 139.92 -52.0931V151.954C139.92 158.768 140.733 163.584 142.36 166.403C143.988 169.223 147.591 170.632 153.17 170.632C158.749 170.632 162.584 169.34 164.677 166.756C167.001 164.171 168.163 159.473 168.163 152.659V-51.0359Z" fill="#E2E2E2"/>
</g>
<defs>
<clipPath id="clip0_83_25">
<rect width="180" height="176" fill="white"/>
</clipPath>
</defs>
</svg>
