<svg width="818" height="745" viewBox="0 0 818 745" fill="none" xmlns="http://www.w3.org/2000/svg">
<path d="M55.6648 149.771V0.770983H86.6648V122.771H149.665V149.771H55.6648ZM209.334 152.171C197.6 152.171 187.134 149.704 177.934 144.771C168.734 139.838 161.467 133.104 156.134 124.571C150.934 115.904 148.334 106.104 148.334 95.171V0.770983H179.334V93.171C179.334 99.0377 180.6 104.371 183.134 109.171C185.8 113.838 189.4 117.504 193.934 120.171C198.467 122.838 203.6 124.171 209.334 124.171C215.2 124.171 220.334 122.838 224.734 120.171C229.267 117.504 232.8 113.838 235.334 109.171C238 104.371 239.334 99.0377 239.334 93.171V0.770983H270.334V95.171C270.334 106.104 267.667 115.904 262.334 124.571C257.134 133.104 249.934 139.838 240.734 144.771C231.534 149.704 221.067 152.171 209.334 152.171ZM272.86 149.771L321.66 75.171L272.86 0.770983H308.46L347.66 60.371H330.26L369.26 0.770983H404.86L356.26 75.171L404.86 149.771H369.26L330.26 89.971L347.66 90.171L308.46 149.771H272.86ZM468.388 152.171C456.655 152.171 446.188 149.704 436.988 144.771C427.788 139.838 420.522 133.104 415.188 124.571C409.988 115.904 407.388 106.104 407.388 95.171V0.770983H438.388V93.171C438.388 99.0377 439.655 104.371 442.188 109.171C444.855 113.838 448.455 117.504 452.988 120.171C457.522 122.838 462.655 124.171 468.388 124.171C474.255 124.171 479.388 122.838 483.788 120.171C488.322 117.504 491.855 113.838 494.388 109.171C497.055 104.371 498.388 99.0377 498.388 93.171V0.770983H529.388V95.171C529.388 106.104 526.722 115.904 521.388 124.571C516.188 133.104 508.988 139.838 499.788 144.771C490.588 149.704 480.122 152.171 468.388 152.171ZM542.915 149.771V0.770983H599.915C610.182 0.770983 619.248 2.57098 627.115 6.17099C635.115 9.77099 641.382 15.1043 645.915 22.171C650.448 29.2377 652.715 37.971 652.715 48.371C652.715 58.5043 650.382 67.171 645.715 74.371C641.048 81.4377 634.782 86.771 626.915 90.371L660.915 149.771H626.115L589.315 83.971L609.315 95.771H573.915V149.771H542.915ZM573.915 68.771H600.115C604.515 68.771 608.315 67.9043 611.515 66.171C614.715 64.4377 617.182 62.0377 618.915 58.971C620.782 55.9043 621.715 52.371 621.715 48.371C621.715 44.2377 620.782 40.6377 618.915 37.571C617.182 34.5043 614.715 32.1043 611.515 30.371C608.315 28.6377 604.515 27.771 600.115 27.771H573.915V68.771ZM701.96 149.771V84.771L652.36 0.770983H687.76L723.76 63.971H711.16L746.96 0.770983H782.36L732.96 84.571V149.771H701.96ZM24.6141 296.771L75.0141 147.771H116.214L166.614 296.771H132.814L122.814 266.371H68.2141L58.2141 296.771H24.6141ZM76.8141 239.371H114.214L91.4141 168.971H99.8141L76.8141 239.371ZM235.844 299.171C225.177 299.171 215.244 297.238 206.044 293.371C196.977 289.504 189.044 284.104 182.244 277.171C175.444 270.238 170.11 262.104 166.244 252.771C162.51 243.438 160.644 233.238 160.644 222.171C160.644 211.104 162.51 200.904 166.244 191.571C169.977 182.104 175.244 173.971 182.044 167.171C188.844 160.238 196.777 154.904 205.844 151.171C215.044 147.304 225.044 145.371 235.844 145.371C246.644 145.371 256.31 147.171 264.844 150.771C273.51 154.371 280.844 159.171 286.844 165.171C292.844 171.171 297.11 177.838 299.644 185.171L272.244 198.371C269.71 191.171 265.244 185.238 258.844 180.571C252.577 175.771 244.91 173.371 235.844 173.371C227.044 173.371 219.31 175.438 212.644 179.571C205.977 183.704 200.777 189.438 197.044 196.771C193.444 203.971 191.644 212.438 191.644 222.171C191.644 231.904 193.444 240.438 197.044 247.771C200.777 255.104 205.977 260.838 212.644 264.971C219.31 269.104 227.044 271.171 235.844 271.171C244.91 271.171 252.577 268.838 258.844 264.171C265.244 259.371 269.71 253.371 272.244 246.171L299.644 259.371C297.11 266.704 292.844 273.371 286.844 279.371C280.844 285.371 273.51 290.171 264.844 293.771C256.31 297.371 246.644 299.171 235.844 299.171ZM379.336 299.171C368.669 299.171 358.736 297.238 349.536 293.371C340.469 289.504 332.536 284.104 325.736 277.171C318.936 270.238 313.603 262.104 309.736 252.771C306.003 243.438 304.136 233.238 304.136 222.171C304.136 211.104 306.003 200.904 309.736 191.571C313.469 182.104 318.736 173.971 325.536 167.171C332.336 160.238 340.269 154.904 349.336 151.171C358.536 147.304 368.536 145.371 379.336 145.371C390.136 145.371 399.803 147.171 408.336 150.771C417.003 154.371 424.336 159.171 430.336 165.171C436.336 171.171 440.603 177.838 443.136 185.171L415.736 198.371C413.203 191.171 408.736 185.238 402.336 180.571C396.069 175.771 388.403 173.371 379.336 173.371C370.536 173.371 362.803 175.438 356.136 179.571C349.469 183.704 344.269 189.438 340.536 196.771C336.936 203.971 335.136 212.438 335.136 222.171C335.136 231.904 336.936 240.438 340.536 247.771C344.269 255.104 349.469 260.838 356.136 264.971C362.803 269.104 370.536 271.171 379.336 271.171C388.403 271.171 396.069 268.838 402.336 264.171C408.736 259.371 413.203 253.371 415.736 246.171L443.136 259.371C440.603 266.704 436.336 273.371 430.336 279.371C424.336 285.371 417.003 290.171 408.336 293.771C399.803 297.371 390.136 299.171 379.336 299.171ZM452.028 296.771V147.771H552.228V174.771H483.028V208.571H548.228V235.571H483.028V269.771H552.228V296.771H452.028ZM613.002 299.171C603.668 299.171 594.868 297.504 586.602 294.171C578.468 290.704 571.402 285.838 565.402 279.571C559.535 273.304 555.135 265.904 552.202 257.371L577.602 245.971C581.335 254.104 586.468 260.504 593.002 265.171C599.668 269.838 607.002 272.171 615.002 272.171C619.268 272.171 622.935 271.504 626.002 270.171C629.068 268.838 631.468 267.038 633.202 264.771C634.935 262.371 635.802 259.571 635.802 256.371C635.802 252.904 634.735 249.971 632.602 247.571C630.468 245.038 627.135 243.038 622.602 241.571L593.402 231.971C581.535 228.104 572.602 222.638 566.602 215.571C560.602 208.371 557.602 199.771 557.602 189.771C557.602 180.971 559.735 173.238 564.002 166.571C568.402 159.904 574.468 154.704 582.202 150.971C590.068 147.238 599.068 145.371 609.202 145.371C618.135 145.371 626.402 146.904 634.002 149.971C641.602 153.038 648.135 157.371 653.602 162.971C659.202 168.571 663.402 175.304 666.202 183.171L641.002 194.571C638.202 187.638 634.002 182.238 628.402 178.371C622.802 174.371 616.402 172.371 609.202 172.371C605.068 172.371 601.402 173.038 598.202 174.371C595.002 175.704 592.535 177.638 590.802 180.171C589.068 182.571 588.202 185.371 588.202 188.571C588.202 192.038 589.335 195.104 591.602 197.771C593.868 200.304 597.268 202.304 601.802 203.771L630.402 212.971C642.402 216.838 651.335 222.238 657.202 229.171C663.202 236.104 666.202 244.571 666.202 254.571C666.202 263.238 663.935 270.971 659.402 277.771C654.868 284.438 648.602 289.704 640.602 293.571C632.735 297.304 623.535 299.171 613.002 299.171ZM731.494 299.171C722.16 299.171 713.36 297.504 705.094 294.171C696.96 290.704 689.894 285.838 683.894 279.571C678.027 273.304 673.627 265.904 670.694 257.371L696.094 245.971C699.827 254.104 704.96 260.504 711.494 265.171C718.16 269.838 725.494 272.171 733.494 272.171C737.76 272.171 741.427 271.504 744.494 270.171C747.56 268.838 749.96 267.038 751.694 264.771C753.427 262.371 754.294 259.571 754.294 256.371C754.294 252.904 753.227 249.971 751.094 247.571C748.96 245.038 745.627 243.038 741.094 241.571L711.894 231.971C700.027 228.104 691.094 222.638 685.094 215.571C679.094 208.371 676.094 199.771 676.094 189.771C676.094 180.971 678.227 173.238 682.494 166.571C686.894 159.904 692.96 154.704 700.694 150.971C708.56 147.238 717.56 145.371 727.694 145.371C736.627 145.371 744.894 146.904 752.494 149.971C760.094 153.038 766.627 157.371 772.094 162.971C777.694 168.571 781.894 175.304 784.694 183.171L759.494 194.571C756.694 187.638 752.494 182.238 746.894 178.371C741.294 174.371 734.894 172.371 727.694 172.371C723.56 172.371 719.894 173.038 716.694 174.371C713.494 175.704 711.027 177.638 709.294 180.171C707.56 182.571 706.694 185.371 706.694 188.571C706.694 192.038 707.827 195.104 710.094 197.771C712.36 200.304 715.76 202.304 720.294 203.771L748.894 212.971C760.894 216.838 769.827 222.238 775.694 229.171C781.694 236.104 784.694 244.571 784.694 254.571C784.694 263.238 782.427 270.971 777.894 277.771C773.36 284.438 767.094 289.704 759.094 293.571C751.227 297.304 742.027 299.171 731.494 299.171ZM210.964 446.171C199.764 446.171 189.364 444.238 179.764 440.371C170.164 436.504 161.764 431.104 154.564 424.171C147.497 417.104 141.964 408.904 137.964 399.571C133.964 390.238 131.964 380.104 131.964 369.171C131.964 358.238 133.897 348.104 137.764 338.771C141.764 329.438 147.297 321.304 154.364 314.371C161.564 307.438 169.964 302.038 179.564 298.171C189.164 294.304 199.631 292.371 210.964 292.371C222.297 292.371 232.764 294.304 242.364 298.171C251.964 302.038 260.297 307.438 267.364 314.371C274.564 321.304 280.097 329.438 283.964 338.771C287.964 348.104 289.964 358.238 289.964 369.171C289.964 380.104 287.964 390.238 283.964 399.571C279.964 408.904 274.364 417.104 267.164 424.171C260.097 431.104 251.764 436.504 242.164 440.371C232.564 444.238 222.164 446.171 210.964 446.171ZM210.964 418.171C217.764 418.171 224.031 416.971 229.764 414.571C235.631 412.171 240.764 408.838 245.164 404.571C249.564 400.171 252.964 394.971 255.364 388.971C257.764 382.971 258.964 376.371 258.964 369.171C258.964 361.971 257.764 355.438 255.364 349.571C252.964 343.571 249.564 338.371 245.164 333.971C240.764 329.571 235.631 326.238 229.764 323.971C224.031 321.571 217.764 320.371 210.964 320.371C204.164 320.371 197.831 321.571 191.964 323.971C186.231 326.238 181.164 329.571 176.764 333.971C172.364 338.371 168.964 343.571 166.564 349.571C164.164 355.438 162.964 361.971 162.964 369.171C162.964 376.371 164.164 382.971 166.564 388.971C168.964 394.971 172.364 400.171 176.764 404.571C181.164 408.838 186.231 412.171 191.964 414.571C197.831 416.971 204.164 418.171 210.964 418.171ZM300.95 443.771V294.771H357.95C368.217 294.771 377.283 296.571 385.15 300.171C393.15 303.771 399.417 309.104 403.95 316.171C408.483 323.238 410.75 331.971 410.75 342.371C410.75 352.504 408.417 361.171 403.75 368.371C399.083 375.438 392.817 380.771 384.95 384.371L418.95 443.771H384.15L347.35 377.971L367.35 389.771H331.95V443.771H300.95ZM331.95 362.771H358.15C362.55 362.771 366.35 361.904 369.55 360.171C372.75 358.438 375.217 356.038 376.95 352.971C378.817 349.904 379.75 346.371 379.75 342.371C379.75 338.238 378.817 334.638 376.95 331.571C375.217 328.504 372.75 326.104 369.55 324.371C366.35 322.638 362.55 321.771 358.15 321.771H331.95V362.771ZM423.348 443.771V294.771H454.348V443.771H423.348ZM469.77 443.771V294.771H569.97V321.771H500.77V355.571H565.97V382.571H500.77V416.771H569.97V443.771H469.77ZM630.744 446.171C621.41 446.171 612.61 444.504 604.344 441.171C596.21 437.704 589.144 432.838 583.144 426.571C577.277 420.304 572.877 412.904 569.944 404.371L595.344 392.971C599.077 401.104 604.21 407.504 610.744 412.171C617.41 416.838 624.744 419.171 632.744 419.171C637.01 419.171 640.677 418.504 643.744 417.171C646.81 415.838 649.21 414.038 650.944 411.771C652.677 409.371 653.544 406.571 653.544 403.371C653.544 399.904 652.477 396.971 650.344 394.571C648.21 392.038 644.877 390.038 640.344 388.571L611.144 378.971C599.277 375.104 590.344 369.638 584.344 362.571C578.344 355.371 575.344 346.771 575.344 336.771C575.344 327.971 577.477 320.238 581.744 313.571C586.144 306.904 592.21 301.704 599.944 297.971C607.81 294.238 616.81 292.371 626.944 292.371C635.877 292.371 644.144 293.904 651.744 296.971C659.344 300.038 665.877 304.371 671.344 309.971C676.944 315.571 681.144 322.304 683.944 330.171L658.744 341.571C655.944 334.638 651.744 329.238 646.144 325.371C640.544 321.371 634.144 319.371 626.944 319.371C622.81 319.371 619.144 320.038 615.944 321.371C612.744 322.704 610.277 324.638 608.544 327.171C606.81 329.571 605.944 332.371 605.944 335.571C605.944 339.038 607.077 342.104 609.344 344.771C611.61 347.304 615.01 349.304 619.544 350.771L648.144 359.971C660.144 363.838 669.077 369.238 674.944 376.171C680.944 383.104 683.944 391.571 683.944 401.571C683.944 410.238 681.677 417.971 677.144 424.771C672.61 431.438 666.344 436.704 658.344 440.571C650.477 444.304 641.277 446.171 630.744 446.171ZM0.325 594.771V445.771H48.925C65.0583 445.771 79.0583 448.971 90.925 455.371C102.792 461.771 111.992 470.571 118.525 481.771C125.058 492.971 128.325 505.771 128.325 520.171C128.325 534.571 125.058 547.438 118.525 558.771C111.992 569.971 102.792 578.771 90.925 585.171C79.0583 591.571 65.0583 594.771 48.925 594.771H0.325ZM31.325 567.771H49.725C59.4583 567.771 67.8583 565.838 74.925 561.971C81.9917 557.971 87.4583 552.438 91.325 545.371C95.325 538.171 97.325 529.771 97.325 520.171C97.325 510.438 95.325 502.038 91.325 494.971C87.4583 487.904 81.9917 482.438 74.925 478.571C67.8583 474.704 59.4583 472.771 49.725 472.771H31.325V567.771ZM137.177 594.771V445.771H168.177V594.771H137.177ZM237.798 597.171C228.465 597.171 219.665 595.504 211.398 592.171C203.265 588.704 196.198 583.838 190.198 577.571C184.332 571.304 179.932 563.904 176.998 555.371L202.398 543.971C206.132 552.104 211.265 558.504 217.798 563.171C224.465 567.838 231.798 570.171 239.798 570.171C244.065 570.171 247.732 569.504 250.798 568.171C253.865 566.838 256.265 565.038 257.998 562.771C259.732 560.371 260.598 557.571 260.598 554.371C260.598 550.904 259.532 547.971 257.398 545.571C255.265 543.038 251.932 541.038 247.398 539.571L218.198 529.971C206.332 526.104 197.398 520.638 191.398 513.571C185.398 506.371 182.398 497.771 182.398 487.771C182.398 478.971 184.532 471.238 188.798 464.571C193.198 457.904 199.265 452.704 206.998 448.971C214.865 445.238 223.865 443.371 233.998 443.371C242.932 443.371 251.198 444.904 258.798 447.971C266.398 451.038 272.932 455.371 278.398 460.971C283.998 466.571 288.198 473.304 290.998 481.171L265.798 492.571C262.998 485.638 258.798 480.238 253.198 476.371C247.598 472.371 241.198 470.371 233.998 470.371C229.865 470.371 226.198 471.038 222.998 472.371C219.798 473.704 217.332 475.638 215.598 478.171C213.865 480.571 212.998 483.371 212.998 486.571C212.998 490.038 214.132 493.104 216.398 495.771C218.665 498.304 222.065 500.304 226.598 501.771L255.198 510.971C267.198 514.838 276.132 520.238 281.998 527.171C287.998 534.104 290.998 542.571 290.998 552.571C290.998 561.238 288.732 568.971 284.198 575.771C279.665 582.438 273.398 587.704 265.398 591.571C257.532 595.304 248.332 597.171 237.798 597.171ZM328.891 594.771V472.771H291.091V445.771H397.091V472.771H359.891V594.771H328.891ZM401.442 594.771V445.771H458.442C468.709 445.771 477.776 447.571 485.642 451.171C493.642 454.771 499.909 460.104 504.442 467.171C508.976 474.238 511.242 482.971 511.242 493.371C511.242 503.504 508.909 512.171 504.242 519.371C499.576 526.438 493.309 531.771 485.442 535.371L519.442 594.771H484.642L447.842 528.971L467.842 540.771H432.442V594.771H401.442ZM432.442 513.771H458.642C463.042 513.771 466.842 512.904 470.042 511.171C473.242 509.438 475.709 507.038 477.442 503.971C479.309 500.904 480.242 497.371 480.242 493.371C480.242 489.238 479.309 485.638 477.442 482.571C475.709 479.504 473.242 477.104 470.042 475.371C466.842 473.638 463.042 472.771 458.642 472.771H432.442V513.771ZM523.841 594.771V445.771H554.841V594.771H523.841ZM570.262 594.771V445.771H633.263C643.529 445.771 652.329 447.504 659.663 450.971C666.996 454.438 672.596 459.438 676.463 465.971C680.329 472.371 682.263 480.171 682.263 489.371C682.263 495.904 680.463 502.171 676.863 508.171C673.263 514.038 667.329 518.971 659.063 522.971V507.771C666.929 510.838 672.996 514.504 677.263 518.771C681.529 523.038 684.463 527.704 686.063 532.771C687.663 537.704 688.463 542.904 688.463 548.371C688.463 563.038 683.596 574.438 673.863 582.571C664.129 590.704 650.596 594.771 633.263 594.771H570.262ZM601.263 567.771H636.863C643.129 567.771 648.129 565.971 651.863 562.371C655.596 558.771 657.463 554.104 657.463 548.371C657.463 542.504 655.596 537.771 651.863 534.171C648.129 530.571 643.129 528.771 636.863 528.771H601.263V567.771ZM601.263 501.771H635.463C640.263 501.771 644.063 500.438 646.863 497.771C649.796 494.971 651.263 491.304 651.263 486.771C651.263 482.238 649.796 478.638 646.863 475.971C644.063 473.171 640.263 471.771 635.463 471.771H601.263V501.771ZM756.548 597.171C744.815 597.171 734.348 594.704 725.148 589.771C715.948 584.838 708.682 578.104 703.348 569.571C698.148 560.904 695.548 551.104 695.548 540.171V445.771H726.548V538.171C726.548 544.038 727.815 549.371 730.348 554.171C733.015 558.838 736.615 562.504 741.148 565.171C745.682 567.838 750.815 569.171 756.548 569.171C762.415 569.171 767.548 567.838 771.948 565.171C776.482 562.504 780.015 558.838 782.548 554.171C785.215 549.371 786.548 544.038 786.548 538.171V445.771H817.548V540.171C817.548 551.104 814.882 560.904 809.548 569.571C804.348 578.104 797.148 584.838 787.948 589.771C778.748 594.704 768.282 597.171 756.548 597.171ZM252.359 741.771V619.771H214.559V592.771H320.559V619.771H283.359V741.771H252.359ZM393.456 744.171C382.256 744.171 371.856 742.238 362.256 738.371C352.656 734.504 344.256 729.104 337.056 722.171C329.99 715.104 324.456 706.904 320.456 697.571C316.456 688.238 314.456 678.104 314.456 667.171C314.456 656.238 316.39 646.104 320.256 636.771C324.256 627.438 329.79 619.304 336.856 612.371C344.056 605.438 352.456 600.038 362.056 596.171C371.656 592.304 382.123 590.371 393.456 590.371C404.79 590.371 415.256 592.304 424.856 596.171C434.456 600.038 442.79 605.438 449.856 612.371C457.056 619.304 462.59 627.438 466.456 636.771C470.456 646.104 472.456 656.238 472.456 667.171C472.456 678.104 470.456 688.238 466.456 697.571C462.456 706.904 456.856 715.104 449.656 722.171C442.59 729.104 434.256 734.504 424.656 738.371C415.056 742.238 404.656 744.171 393.456 744.171ZM393.456 716.171C400.256 716.171 406.523 714.971 412.256 712.571C418.123 710.171 423.256 706.838 427.656 702.571C432.056 698.171 435.456 692.971 437.856 686.971C440.256 680.971 441.456 674.371 441.456 667.171C441.456 659.971 440.256 653.438 437.856 647.571C435.456 641.571 432.056 636.371 427.656 631.971C423.256 627.571 418.123 624.238 412.256 621.971C406.523 619.571 400.256 618.371 393.456 618.371C386.656 618.371 380.323 619.571 374.456 621.971C368.723 624.238 363.656 627.571 359.256 631.971C354.856 636.371 351.456 641.571 349.056 647.571C346.656 653.438 345.456 659.971 345.456 667.171C345.456 674.371 346.656 680.971 349.056 686.971C351.456 692.971 354.856 698.171 359.256 702.571C363.656 706.838 368.723 710.171 374.456 712.571C380.323 714.971 386.656 716.171 393.456 716.171ZM483.442 741.771V592.771H540.442C550.709 592.771 559.776 594.571 567.642 598.171C575.642 601.771 581.909 607.104 586.442 614.171C590.976 621.238 593.242 629.971 593.242 640.371C593.242 650.504 590.909 659.171 586.242 666.371C581.576 673.438 575.309 678.771 567.442 682.371L601.442 741.771H566.642L529.842 675.971L549.842 687.771H514.442V741.771H483.442ZM514.442 660.771H540.642C545.042 660.771 548.842 659.904 552.042 658.171C555.242 656.438 557.709 654.038 559.442 650.971C561.309 647.904 562.242 644.371 562.242 640.371C562.242 636.238 561.309 632.638 559.442 629.571C557.709 626.504 555.242 624.104 552.042 622.371C548.842 620.638 545.042 619.771 540.642 619.771H514.442V660.771Z" fill="#CA434D"/>
</svg>
