<svg width="1847" height="641" viewBox="0 0 1847 641" fill="none" xmlns="http://www.w3.org/2000/svg">
<path d="M435.167 209.306V0.706238H478.567V171.506H566.767V209.306H435.167Z" fill="#CA434D"/>
<path d="M650.304 212.666C633.877 212.666 619.224 209.213 606.344 202.306C593.464 195.4 583.29 185.973 575.824 174.026C568.544 161.893 564.904 148.173 564.904 132.866V0.706238H608.304V130.066C608.304 138.28 610.077 145.746 613.624 152.466C617.357 159 622.397 164.133 628.744 167.866C635.09 171.6 642.277 173.466 650.304 173.466C658.517 173.466 665.704 171.6 671.864 167.866C678.21 164.133 683.157 159 686.704 152.466C690.437 145.746 692.304 138.28 692.304 130.066V0.706238H735.704V132.866C735.704 148.173 731.97 161.893 724.504 174.026C717.224 185.973 707.144 195.4 694.264 202.306C681.384 209.213 666.73 212.666 650.304 212.666Z" fill="#CA434D"/>
<path d="M739.241 209.306L807.561 104.866L739.241 0.706238H789.081L843.961 84.1462H819.601L874.201 0.706238H924.041L856.001 104.866L924.041 209.306H874.201L819.601 125.586L843.961 125.866L789.081 209.306H739.241Z" fill="#CA434D"/>
<path d="M1012.98 212.666C996.554 212.666 981.9 209.213 969.02 202.306C956.14 195.4 945.967 185.973 938.5 174.026C931.22 161.893 927.58 148.173 927.58 132.866V0.706238H970.98V130.066C970.98 138.28 972.754 145.746 976.3 152.466C980.034 159 985.074 164.133 991.42 167.866C997.767 171.6 1004.95 173.466 1012.98 173.466C1021.19 173.466 1028.38 171.6 1034.54 167.866C1040.89 164.133 1045.83 159 1049.38 152.466C1053.11 145.746 1054.98 138.28 1054.98 130.066V0.706238H1098.38V132.866C1098.38 148.173 1094.65 161.893 1087.18 174.026C1079.9 185.973 1069.82 195.4 1056.94 202.306C1044.06 209.213 1029.41 212.666 1012.98 212.666Z" fill="#CA434D"/>
<path d="M1117.32 209.306V0.706238H1197.12C1211.49 0.706238 1224.18 3.22624 1235.2 8.26624C1246.4 13.3062 1255.17 20.7729 1261.52 30.6663C1267.86 40.5596 1271.04 52.7862 1271.04 67.3462C1271.04 81.5329 1267.77 93.6663 1261.24 103.746C1254.7 113.64 1245.93 121.106 1234.92 126.146L1282.52 209.306H1233.8L1182.28 117.186L1210.28 133.706H1160.72V209.306H1117.32ZM1160.72 95.9062H1197.4C1203.56 95.9062 1208.88 94.6929 1213.36 92.2663C1217.84 89.8396 1221.29 86.4796 1223.72 82.1862C1226.33 77.8929 1227.64 72.9462 1227.64 67.3462C1227.64 61.5596 1226.33 56.5196 1223.72 52.2262C1221.29 47.9329 1217.84 44.5729 1213.36 42.1463C1208.88 39.7196 1203.56 38.5063 1197.4 38.5063H1160.72V95.9062Z" fill="#CA434D"/>
<path d="M1339.98 209.306V118.306L1270.54 0.706238H1320.1L1370.5 89.1862H1352.86L1402.98 0.706238H1452.54L1383.38 118.026V209.306H1339.98Z" fill="#CA434D"/>
<path d="M0.625977 421.306L71.186 212.706H128.866L199.426 421.306H152.106L138.106 378.746H61.666L47.666 421.306H0.625977ZM73.706 340.946H126.066L94.146 242.386H105.906L73.706 340.946Z" fill="#CA434D"/>
<path d="M296.348 424.666C281.414 424.666 267.508 421.96 254.628 416.546C241.934 411.133 230.828 403.573 221.308 393.866C211.788 384.16 204.321 372.773 198.908 359.706C193.681 346.64 191.068 332.36 191.068 316.866C191.068 301.373 193.681 287.093 198.908 274.026C204.134 260.773 211.508 249.386 221.028 239.866C230.548 230.16 241.654 222.693 254.348 217.466C267.228 212.053 281.228 209.346 296.348 209.346C311.468 209.346 325.001 211.866 336.948 216.906C349.081 221.946 359.348 228.666 367.748 237.066C376.148 245.466 382.121 254.8 385.668 265.066L347.308 283.546C343.761 273.466 337.508 265.16 328.548 258.626C319.774 251.906 309.041 248.546 296.348 248.546C284.028 248.546 273.201 251.44 263.868 257.226C254.534 263.013 247.254 271.04 242.028 281.306C236.988 291.386 234.468 303.24 234.468 316.866C234.468 330.493 236.988 342.44 242.028 352.706C247.254 362.973 254.534 371 263.868 376.786C273.201 382.573 284.028 385.466 296.348 385.466C309.041 385.466 319.774 382.2 328.548 375.666C337.508 368.946 343.761 360.546 347.308 350.466L385.668 368.946C382.121 379.213 376.148 388.546 367.748 396.946C359.348 405.346 349.081 412.066 336.948 417.106C325.001 422.146 311.468 424.666 296.348 424.666Z" fill="#CA434D"/>
<path d="M497.237 424.666C482.303 424.666 468.397 421.96 455.517 416.546C442.823 411.133 431.717 403.573 422.197 393.866C412.677 384.16 405.21 372.773 399.797 359.706C394.57 346.64 391.957 332.36 391.957 316.866C391.957 301.373 394.57 287.093 399.797 274.026C405.023 260.773 412.397 249.386 421.917 239.866C431.437 230.16 442.543 222.693 455.237 217.466C468.117 212.053 482.117 209.346 497.237 209.346C512.357 209.346 525.89 211.866 537.837 216.906C549.97 221.946 560.237 228.666 568.637 237.066C577.037 245.466 583.01 254.8 586.557 265.066L548.197 283.546C544.65 273.466 538.397 265.16 529.437 258.626C520.663 251.906 509.93 248.546 497.237 248.546C484.917 248.546 474.09 251.44 464.757 257.226C455.423 263.013 448.143 271.04 442.917 281.306C437.877 291.386 435.357 303.24 435.357 316.866C435.357 330.493 437.877 342.44 442.917 352.706C448.143 362.973 455.423 371 464.757 376.786C474.09 382.573 484.917 385.466 497.237 385.466C509.93 385.466 520.663 382.2 529.437 375.666C538.397 368.946 544.65 360.546 548.197 350.466L586.557 368.946C583.01 379.213 577.037 388.546 568.637 396.946C560.237 405.346 549.97 412.066 537.837 417.106C525.89 422.146 512.357 424.666 497.237 424.666Z" fill="#CA434D"/>
<path d="M599.006 421.306V212.706H739.286V250.506H642.406V297.826H733.686V335.626H642.406V383.506H739.286V421.306H599.006Z" fill="#CA434D"/>
<path d="M824.369 424.666C811.302 424.666 798.982 422.333 787.409 417.666C776.022 412.813 766.129 406 757.729 397.226C749.515 388.453 743.355 378.093 739.248 366.146L774.809 350.186C780.035 361.573 787.222 370.533 796.369 377.066C805.702 383.6 815.969 386.866 827.169 386.866C833.142 386.866 838.275 385.933 842.568 384.066C846.862 382.2 850.222 379.68 852.648 376.506C855.075 373.146 856.289 369.226 856.289 364.746C856.289 359.893 854.795 355.786 851.809 352.426C848.822 348.88 844.155 346.08 837.809 344.026L796.929 330.586C780.315 325.173 767.809 317.52 759.409 307.626C751.009 297.546 746.808 285.506 746.808 271.506C746.808 259.186 749.795 248.36 755.768 239.026C761.928 229.693 770.422 222.413 781.248 217.186C792.262 211.96 804.862 209.346 819.049 209.346C831.555 209.346 843.128 211.493 853.768 215.786C864.408 220.08 873.555 226.146 881.208 233.986C889.048 241.826 894.929 251.253 898.849 262.266L863.568 278.226C859.648 268.52 853.769 260.96 845.929 255.546C838.089 249.946 829.129 247.146 819.049 247.146C813.262 247.146 808.128 248.08 803.648 249.946C799.168 251.813 795.715 254.52 793.289 258.066C790.862 261.426 789.648 265.346 789.648 269.826C789.648 274.68 791.235 278.973 794.409 282.706C797.582 286.253 802.342 289.053 808.688 291.106L848.729 303.986C865.529 309.4 878.035 316.96 886.249 326.666C894.649 336.373 898.849 348.226 898.849 362.226C898.849 374.36 895.675 385.186 889.328 394.706C882.982 404.04 874.208 411.413 863.008 416.826C851.995 422.053 839.115 424.666 824.369 424.666Z" fill="#CA434D"/>
<path d="M990.258 424.666C977.191 424.666 964.871 422.333 953.298 417.666C941.911 412.813 932.018 406 923.618 397.226C915.404 388.453 909.244 378.093 905.138 366.146L940.698 350.186C945.924 361.573 953.111 370.533 962.258 377.066C971.591 383.6 981.858 386.866 993.058 386.866C999.031 386.866 1004.16 385.933 1008.46 384.066C1012.75 382.2 1016.11 379.68 1018.54 376.506C1020.96 373.146 1022.18 369.226 1022.18 364.746C1022.18 359.893 1020.68 355.786 1017.7 352.426C1014.71 348.88 1010.04 346.08 1003.7 344.026L962.818 330.586C946.204 325.173 933.698 317.52 925.298 307.626C916.898 297.546 912.698 285.506 912.698 271.506C912.698 259.186 915.684 248.36 921.658 239.026C927.818 229.693 936.311 222.413 947.138 217.186C958.151 211.96 970.751 209.346 984.938 209.346C997.444 209.346 1009.02 211.493 1019.66 215.786C1030.3 220.08 1039.44 226.146 1047.1 233.986C1054.94 241.826 1060.82 251.253 1064.74 262.266L1029.46 278.226C1025.54 268.52 1019.66 260.96 1011.82 255.546C1003.98 249.946 995.018 247.146 984.938 247.146C979.151 247.146 974.018 248.08 969.538 249.946C965.058 251.813 961.604 254.52 959.178 258.066C956.751 261.426 955.538 265.346 955.538 269.826C955.538 274.68 957.124 278.973 960.298 282.706C963.471 286.253 968.231 289.053 974.578 291.106L1014.62 303.986C1031.42 309.4 1043.92 316.96 1052.14 326.666C1060.54 336.373 1064.74 348.226 1064.74 362.226C1064.74 374.36 1061.56 385.186 1055.22 394.706C1048.87 404.04 1040.1 411.413 1028.9 416.826C1017.88 422.053 1005 424.666 990.258 424.666Z" fill="#CA434D"/>
<path d="M1184.71 424.666C1169.03 424.666 1154.47 421.96 1141.03 416.546C1127.59 411.133 1115.83 403.573 1105.75 393.866C1095.85 383.973 1088.11 372.493 1082.51 359.426C1076.91 346.36 1074.11 332.173 1074.11 316.866C1074.11 301.56 1076.81 287.373 1082.23 274.306C1087.83 261.24 1095.57 249.853 1105.47 240.146C1115.55 230.44 1127.31 222.88 1140.75 217.466C1154.19 212.053 1168.84 209.346 1184.71 209.346C1200.57 209.346 1215.23 212.053 1228.67 217.466C1242.11 222.88 1253.77 230.44 1263.67 240.146C1273.75 249.853 1281.49 261.24 1286.91 274.306C1292.51 287.373 1295.31 301.56 1295.31 316.866C1295.31 332.173 1292.51 346.36 1286.91 359.426C1281.31 372.493 1273.47 383.973 1263.39 393.866C1253.49 403.573 1241.83 411.133 1228.39 416.546C1214.95 421.96 1200.39 424.666 1184.71 424.666ZM1184.71 385.466C1194.23 385.466 1203 383.786 1211.03 380.426C1219.24 377.066 1226.43 372.4 1232.59 366.426C1238.75 360.266 1243.51 352.986 1246.87 344.586C1250.23 336.186 1251.91 326.946 1251.91 316.866C1251.91 306.786 1250.23 297.64 1246.87 289.426C1243.51 281.026 1238.75 273.746 1232.59 267.586C1226.43 261.426 1219.24 256.76 1211.03 253.586C1203 250.226 1194.23 248.546 1184.71 248.546C1175.19 248.546 1166.32 250.226 1158.11 253.586C1150.08 256.76 1142.99 261.426 1136.83 267.586C1130.67 273.746 1125.91 281.026 1122.55 289.426C1119.19 297.64 1117.51 306.786 1117.51 316.866C1117.51 326.946 1119.19 336.186 1122.55 344.586C1125.91 352.986 1130.67 360.266 1136.83 366.426C1142.99 372.4 1150.08 377.066 1158.11 380.426C1166.32 383.786 1175.19 385.466 1184.71 385.466Z" fill="#CA434D"/>
<path d="M1310.69 421.306V212.706H1390.49C1404.86 212.706 1417.55 215.226 1428.57 220.266C1439.77 225.306 1448.54 232.773 1454.89 242.666C1461.23 252.56 1464.41 264.786 1464.41 279.346C1464.41 293.533 1461.14 305.666 1454.61 315.746C1448.07 325.64 1439.3 333.106 1428.29 338.146L1475.89 421.306H1427.17L1375.65 329.186L1403.65 345.706H1354.09V421.306H1310.69ZM1354.09 307.906H1390.77C1396.93 307.906 1402.25 306.693 1406.73 304.266C1411.21 301.84 1414.66 298.48 1417.09 294.186C1419.7 289.893 1421.01 284.946 1421.01 279.346C1421.01 273.56 1419.7 268.52 1417.09 264.226C1414.66 259.933 1411.21 256.573 1406.73 254.146C1402.25 251.72 1396.93 250.506 1390.77 250.506H1354.09V307.906Z" fill="#CA434D"/>
<path d="M1482.04 421.306V212.706H1525.44V421.306H1482.04Z" fill="#CA434D"/>
<path d="M1547.04 421.306V212.706H1687.32V250.506H1590.44V297.826H1681.72V335.626H1590.44V383.506H1687.32V421.306H1547.04Z" fill="#CA434D"/>
<path d="M1772.4 424.666C1759.33 424.666 1747.01 422.333 1735.44 417.666C1724.05 412.813 1714.16 406 1705.76 397.226C1697.54 388.453 1691.38 378.093 1687.28 366.146L1722.84 350.186C1728.06 361.573 1735.25 370.533 1744.4 377.066C1753.73 383.6 1764 386.866 1775.2 386.866C1781.17 386.866 1786.3 385.933 1790.6 384.066C1794.89 382.2 1798.25 379.68 1800.68 376.506C1803.1 373.146 1804.32 369.226 1804.32 364.746C1804.32 359.893 1802.82 355.786 1799.84 352.426C1796.85 348.88 1792.18 346.08 1785.84 344.026L1744.96 330.586C1728.34 325.173 1715.84 317.52 1707.44 307.626C1699.04 297.546 1694.84 285.506 1694.84 271.506C1694.84 259.186 1697.82 248.36 1703.8 239.026C1709.96 229.693 1718.45 222.413 1729.28 217.186C1740.29 211.96 1752.89 209.346 1767.08 209.346C1779.58 209.346 1791.16 211.493 1801.8 215.786C1812.44 220.08 1821.58 226.146 1829.24 233.986C1837.08 241.826 1842.96 251.253 1846.88 262.266L1811.6 278.226C1807.68 268.52 1801.8 260.96 1793.96 255.546C1786.12 249.946 1777.16 247.146 1767.08 247.146C1761.29 247.146 1756.16 248.08 1751.68 249.946C1747.2 251.813 1743.74 254.52 1741.32 258.066C1738.89 261.426 1737.68 265.346 1737.68 269.826C1737.68 274.68 1739.26 278.973 1742.44 282.706C1745.61 286.253 1750.37 289.053 1756.72 291.106L1796.76 303.986C1813.56 309.4 1826.06 316.96 1834.28 326.666C1842.68 336.373 1846.88 348.226 1846.88 362.226C1846.88 374.36 1843.7 385.186 1837.36 394.706C1831.01 404.04 1822.24 411.413 1811.04 416.826C1800.02 422.053 1787.14 424.666 1772.4 424.666Z" fill="#CA434D"/>
<path d="M91.4947 637.306V428.706H159.535C182.121 428.706 201.721 433.186 218.335 442.146C234.948 451.106 247.828 463.426 256.975 479.106C266.121 494.786 270.695 512.706 270.695 532.866C270.695 553.026 266.121 571.04 256.975 586.906C247.828 602.586 234.948 614.906 218.335 623.866C201.721 632.826 182.121 637.306 159.535 637.306H91.4947ZM134.895 599.506H160.655C174.281 599.506 186.041 596.8 195.935 591.386C205.828 585.786 213.481 578.04 218.895 568.146C224.495 558.066 227.295 546.306 227.295 532.866C227.295 519.24 224.495 507.48 218.895 497.586C213.481 487.693 205.828 480.04 195.935 474.626C186.041 469.213 174.281 466.506 160.655 466.506H134.895V599.506Z" fill="#CA434D"/>
<path d="M283.087 637.306V428.706H326.487V637.306H283.087Z" fill="#CA434D"/>
<path d="M423.958 640.666C410.891 640.666 398.571 638.333 386.998 633.666C375.611 628.813 365.718 622 357.318 613.226C349.104 604.453 342.944 594.093 338.838 582.146L374.398 566.186C379.624 577.573 386.811 586.533 395.958 593.066C405.291 599.6 415.558 602.866 426.758 602.866C432.731 602.866 437.864 601.933 442.158 600.066C446.451 598.2 449.811 595.68 452.238 592.506C454.664 589.146 455.878 585.226 455.878 580.746C455.878 575.893 454.384 571.786 451.398 568.426C448.411 564.88 443.744 562.08 437.398 560.026L396.518 546.586C379.904 541.173 367.398 533.52 358.998 523.626C350.598 513.546 346.398 501.506 346.398 487.506C346.398 475.186 349.384 464.36 355.358 455.026C361.518 445.693 370.011 438.413 380.838 433.186C391.851 427.96 404.451 425.346 418.638 425.346C431.144 425.346 442.718 427.493 453.358 431.786C463.998 436.08 473.144 442.146 480.798 449.986C488.638 457.826 494.518 467.253 498.438 478.266L463.158 494.226C459.238 484.52 453.358 476.96 445.518 471.546C437.678 465.946 428.718 463.146 418.638 463.146C412.851 463.146 407.718 464.08 403.238 465.946C398.758 467.813 395.304 470.52 392.878 474.066C390.451 477.426 389.238 481.346 389.238 485.826C389.238 490.68 390.824 494.973 393.998 498.706C397.171 502.253 401.931 505.053 408.278 507.106L448.318 519.986C465.118 525.4 477.624 532.96 485.838 542.666C494.238 552.373 498.438 564.226 498.438 578.226C498.438 590.36 495.264 601.186 488.918 610.706C482.571 620.04 473.798 627.413 462.598 632.826C451.584 638.053 438.704 640.666 423.958 640.666Z" fill="#CA434D"/>
<path d="M551.487 637.306V466.506H498.567V428.706H646.967V466.506H594.887V637.306H551.487Z" fill="#CA434D"/>
<path d="M653.059 637.306V428.706H732.859C747.232 428.706 759.926 431.226 770.939 436.266C782.139 441.306 790.912 448.773 797.259 458.666C803.606 468.56 806.779 480.786 806.779 495.346C806.779 509.533 803.512 521.666 796.979 531.746C790.445 541.64 781.672 549.106 770.659 554.146L818.259 637.306H769.539L718.019 545.186L746.019 561.706H696.459V637.306H653.059ZM696.459 523.906H733.139C739.299 523.906 744.619 522.693 749.099 520.266C753.579 517.84 757.032 514.48 759.459 510.186C762.072 505.893 763.379 500.946 763.379 495.346C763.379 489.56 762.072 484.52 759.459 480.226C757.032 475.933 753.579 472.573 749.099 470.146C744.619 467.72 739.299 466.506 733.139 466.506H696.459V523.906Z" fill="#CA434D"/>
<path d="M824.417 637.306V428.706H867.817V637.306H824.417Z" fill="#CA434D"/>
<path d="M889.407 637.306V428.706H977.607C991.981 428.706 1004.3 431.133 1014.57 435.986C1024.83 440.84 1032.67 447.84 1038.09 456.986C1043.5 465.946 1046.21 476.866 1046.21 489.746C1046.21 498.893 1043.69 507.666 1038.65 516.066C1033.61 524.28 1025.3 531.186 1013.73 536.786V515.506C1024.74 519.8 1033.23 524.933 1039.21 530.906C1045.18 536.88 1049.29 543.413 1051.53 550.506C1053.77 557.413 1054.89 564.693 1054.89 572.346C1054.89 592.88 1048.07 608.84 1034.45 620.226C1020.82 631.613 1001.87 637.306 977.607 637.306H889.407ZM932.807 599.506H982.647C991.421 599.506 998.421 596.986 1003.65 591.946C1008.87 586.906 1011.49 580.373 1011.49 572.346C1011.49 564.133 1008.87 557.506 1003.65 552.466C998.421 547.426 991.421 544.906 982.647 544.906H932.807V599.506ZM932.807 507.106H980.687C987.407 507.106 992.727 505.24 996.647 501.506C1000.75 497.586 1002.81 492.453 1002.81 486.106C1002.81 479.76 1000.75 474.72 996.647 470.986C992.727 467.066 987.407 465.106 980.687 465.106H932.807V507.106Z" fill="#CA434D"/>
<path d="M1150.21 640.666C1133.78 640.666 1119.13 637.213 1106.25 630.306C1093.37 623.4 1083.19 613.973 1075.73 602.026C1068.45 589.893 1064.81 576.173 1064.81 560.866V428.706H1108.21V558.066C1108.21 566.28 1109.98 573.746 1113.53 580.466C1117.26 587 1122.3 592.133 1128.65 595.866C1134.99 599.6 1142.18 601.466 1150.21 601.466C1158.42 601.466 1165.61 599.6 1171.77 595.866C1178.11 592.133 1183.06 587 1186.61 580.466C1190.34 573.746 1192.21 566.28 1192.21 558.066V428.706H1235.61V560.866C1235.61 576.173 1231.87 589.893 1224.41 602.026C1217.13 613.973 1207.05 623.4 1194.17 630.306C1181.29 637.213 1166.63 640.666 1150.21 640.666Z" fill="#CA434D"/>
<path d="M1292.06 637.306V466.506H1239.14V428.706H1387.54V466.506H1335.46V637.306H1292.06Z" fill="#CA434D"/>
<path d="M1489.6 640.666C1473.92 640.666 1459.36 637.96 1445.92 632.546C1432.48 627.133 1420.72 619.573 1410.64 609.866C1400.75 599.973 1393 588.493 1387.4 575.426C1381.8 562.36 1379 548.173 1379 532.866C1379 517.56 1381.71 503.373 1387.12 490.306C1392.72 477.24 1400.47 465.853 1410.36 456.146C1420.44 446.44 1432.2 438.88 1445.64 433.466C1459.08 428.053 1473.73 425.346 1489.6 425.346C1505.47 425.346 1520.12 428.053 1533.56 433.466C1547 438.88 1558.67 446.44 1568.56 456.146C1578.64 465.853 1586.39 477.24 1591.8 490.306C1597.4 503.373 1600.2 517.56 1600.2 532.866C1600.2 548.173 1597.4 562.36 1591.8 575.426C1586.2 588.493 1578.36 599.973 1568.28 609.866C1558.39 619.573 1546.72 627.133 1533.28 632.546C1519.84 637.96 1505.28 640.666 1489.6 640.666ZM1489.6 601.466C1499.12 601.466 1507.89 599.786 1515.92 596.426C1524.13 593.066 1531.32 588.4 1537.48 582.426C1543.64 576.266 1548.4 568.986 1551.76 560.586C1555.12 552.186 1556.8 542.946 1556.8 532.866C1556.8 522.786 1555.12 513.64 1551.76 505.426C1548.4 497.026 1543.64 489.746 1537.48 483.586C1531.32 477.426 1524.13 472.76 1515.92 469.586C1507.89 466.226 1499.12 464.546 1489.6 464.546C1480.08 464.546 1471.21 466.226 1463 469.586C1454.97 472.76 1447.88 477.426 1441.72 483.586C1435.56 489.746 1430.8 497.026 1427.44 505.426C1424.08 513.64 1422.4 522.786 1422.4 532.866C1422.4 542.946 1424.08 552.186 1427.44 560.586C1430.8 568.986 1435.56 576.266 1441.72 582.426C1447.88 588.4 1454.97 593.066 1463 596.426C1471.21 599.786 1480.08 601.466 1489.6 601.466Z" fill="#CA434D"/>
<path d="M1615.58 637.306V428.706H1695.38C1709.75 428.706 1722.45 431.226 1733.46 436.266C1744.66 441.306 1753.43 448.773 1759.78 458.666C1766.13 468.56 1769.3 480.786 1769.3 495.346C1769.3 509.533 1766.03 521.666 1759.5 531.746C1752.97 541.64 1744.19 549.106 1733.18 554.146L1780.78 637.306H1732.06L1680.54 545.186L1708.54 561.706H1658.98V637.306H1615.58ZM1658.98 523.906H1695.66C1701.82 523.906 1707.14 522.693 1711.62 520.266C1716.1 517.84 1719.55 514.48 1721.98 510.186C1724.59 505.893 1725.9 500.946 1725.9 495.346C1725.9 489.56 1724.59 484.52 1721.98 480.226C1719.55 475.933 1716.1 472.573 1711.62 470.146C1707.14 467.72 1701.82 466.506 1695.66 466.506H1658.98V523.906Z" fill="#CA434D"/>
</svg>
